<svg width="158" height="90" viewBox="0 0 158 90" fill="none" xmlns="http://www.w3.org/2000/svg">
<rect x="0.59668" y="0.279297" width="157.059" height="89.6512" rx="8" fill="#3D4047" fill-opacity="0.96"/>
<rect x="0.59668" y="0.279297" width="157.059" height="89.6512" rx="8" fill="white" fill-opacity="0.1"/>
<path d="M12.865 11.7406V18.1406H10.969V11.7406H12.865ZM20.4989 11.7406H22.4269V18.1406H20.5229V14.1086L18.3229 16.5166H18.3149L16.1149 14.1246V18.1406H14.2029V11.7406H16.1389L18.3149 14.0926L20.4989 11.7406ZM29.6533 11.7406L30.6533 12.7406V15.2126L29.6533 16.2126H25.6613V18.1406H23.7653V11.7406H29.6533ZM28.7653 14.6686V13.3406H25.6613V14.6686H28.7653ZM39.194 18.1406H36.818L35.042 16.0046H33.794V18.1406H31.882V11.7406H37.85L38.842 12.7406V15.0126L37.85 16.0046H37.138L39.194 18.1406ZM33.794 13.3486V14.4286H36.93V13.3486H33.794ZM46.1507 11.7406L47.1507 12.7406V17.1406L46.1507 18.1406H41.0147L40.0147 17.1406V12.7406L41.0147 11.7406H46.1507ZM45.2547 13.3406H41.9107V16.5406H45.2547V13.3406ZM53.8513 11.7406H55.9793L52.8113 18.1406H50.8833L47.7313 11.7406H49.8993L51.8913 15.9086L53.8513 11.7406ZM63.2325 13.3406H58.8085V14.1326H62.1045V15.7006H58.8085V16.5406H63.2325V18.1406H56.9125V11.7406H63.2325V13.3406ZM70.6767 11.7406H72.6047V18.1406H70.7007V14.1086L68.5007 16.5166H68.4927L66.2927 14.1246V18.1406H64.3807V11.7406H66.3167L68.4927 14.0926L70.6767 11.7406ZM80.2631 13.3406H75.8391V14.1326H79.1351V15.7006H75.8391V16.5406H80.2631V18.1406H73.9431V11.7406H80.2631V13.3406ZM87.0273 11.7406H88.8353V18.1406H86.9393L83.2273 14.0046V18.1406H81.4193V11.7406H83.3313L87.0273 15.8606V11.7406ZM92.3208 18.1406V13.3406H89.8168V11.7406H96.7128V13.3406H94.2088V18.1406H92.3208Z" fill="white"/>
<g clip-path="url(#clip0_1555_4060)">
<rect width="91.3381" height="5" transform="translate(10.457 31.6406)" fill="#28EFCB" fill-opacity="0.24"/>
<rect x="10.457" y="31.6406" width="76.4207" height="4.77698" fill="#28EFCB"/>
</g>
<path d="M116.259 38.1406V31.7295H117.719V38.1406H116.259ZM124.842 31.7295V38.1406H123.485L120.853 34.2588V38.1406H119.413V31.7295H120.775L123.392 35.6211V31.7295H124.842ZM127.611 31.7295L128.411 33.7705C128.545 34.1449 128.704 34.612 128.89 35.1719C129.079 35.7318 129.212 36.1273 129.29 36.3584C129.372 36.124 129.508 35.7285 129.7 35.1719C129.896 34.612 130.063 34.1416 130.203 33.7607L130.989 31.7295H132.552L130.052 38.1406H128.553L126.009 31.7295H127.611ZM138.752 31.6123C139.254 31.6123 139.691 31.7132 140.066 31.915C140.443 32.1136 140.732 32.3838 140.93 32.7256C141.132 33.0674 141.233 33.445 141.233 33.8584C141.233 34.2718 141.15 34.6462 140.984 34.9814C140.818 35.3135 140.583 35.6927 140.281 36.1191L138.884 38.1406H137.322L138.83 36.0605C138.684 36.0736 138.581 36.0801 138.523 36.0801C138.09 36.0801 137.696 35.9889 137.341 35.8066C136.99 35.6211 136.711 35.3656 136.506 35.04C136.304 34.7145 136.204 34.3385 136.204 33.9121C136.204 33.4661 136.313 33.069 136.531 32.7207C136.752 32.3724 137.056 32.1006 137.444 31.9053C137.831 31.71 138.267 31.6123 138.752 31.6123ZM137.634 33.873C137.634 34.1725 137.737 34.4102 137.942 34.5859C138.15 34.7617 138.404 34.8496 138.704 34.8496C139.01 34.8496 139.265 34.7633 139.47 34.5908C139.678 34.4183 139.783 34.1823 139.783 33.8828C139.783 33.5768 139.678 33.3376 139.47 33.165C139.265 32.9893 139.013 32.9014 138.713 32.9014C138.414 32.9014 138.158 32.9876 137.947 33.1602C137.738 33.3327 137.634 33.5703 137.634 33.873ZM144.885 38.2529C144.357 38.2529 143.9 38.1195 143.513 37.8525C143.129 37.5856 142.834 37.2015 142.629 36.7002C142.427 36.1989 142.326 35.613 142.326 34.9424C142.326 34.262 142.427 33.6696 142.629 33.165C142.834 32.6605 143.127 32.2747 143.508 32.0078C143.892 31.7376 144.351 31.6025 144.885 31.6025C145.412 31.6025 145.869 31.7376 146.257 32.0078C146.647 32.2747 146.947 32.6605 147.155 33.165C147.367 33.6696 147.473 34.262 147.473 34.9424C147.473 35.6162 147.367 36.2038 147.155 36.7051C146.947 37.2031 146.647 37.5856 146.257 37.8525C145.869 38.1195 145.412 38.2529 144.885 38.2529ZM144.895 36.9883C145.269 36.9883 145.55 36.8125 145.739 36.4609C145.928 36.1061 146.022 35.5999 146.022 34.9424C146.022 34.2816 145.928 33.7738 145.739 33.4189C145.55 33.0609 145.269 32.8818 144.895 32.8818C144.527 32.8818 144.245 33.0592 144.05 33.4141C143.858 33.7656 143.762 34.2751 143.762 34.9424C143.762 35.5967 143.858 36.1012 144.05 36.4561C144.245 36.8109 144.527 36.9883 144.895 36.9883Z" fill="white"/>
<g clip-path="url(#clip1_1555_4060)">
<rect width="91.3381" height="5" transform="translate(10.457 49.6406)" fill="#28EFCB" fill-opacity="0.24"/>
<rect x="10.457" y="49.6406" width="73.9822" height="4.77698" fill="#28EFCB"/>
</g>
<path d="M116.469 49.7295H117.88L120.258 56.1406H118.71L118.236 54.8223H116.078L115.6 56.1406H114.076L116.469 49.7295ZM117.816 53.6016L117.567 52.9082C117.509 52.7292 117.423 52.4606 117.309 52.1025L117.177 51.7021C117.157 51.79 117.105 51.9528 117.021 52.1904C116.939 52.4248 116.851 52.6641 116.757 52.9082L116.498 53.6016H117.816ZM125.526 54.8223V56.1406H121.424V49.7295H122.904V54.8223H125.526ZM132.879 52.5908V53.2793C132.879 53.8717 132.741 54.3942 132.464 54.8467C132.187 55.2959 131.8 55.6458 131.302 55.8965C130.807 56.1471 130.242 56.2725 129.608 56.2725C128.947 56.2725 128.366 56.1357 127.864 55.8623C127.366 55.5889 126.981 55.2048 126.707 54.71C126.437 54.2119 126.302 53.6357 126.302 52.9814C126.302 52.3206 126.444 51.7347 126.727 51.2236C127.01 50.7093 127.405 50.3089 127.913 50.0225C128.424 49.736 129.01 49.5928 129.671 49.5928C130.218 49.5928 130.711 49.6888 131.151 49.8809C131.59 50.0729 131.95 50.3431 132.23 50.6914C132.51 51.0365 132.69 51.4368 132.772 51.8926H131.209C131.102 51.5996 130.908 51.3701 130.628 51.2041C130.348 51.0348 130.019 50.9502 129.642 50.9502C129.075 50.9502 128.628 51.1325 128.299 51.4971C127.974 51.8584 127.811 52.3467 127.811 52.9619C127.811 53.5739 127.975 54.054 128.304 54.4023C128.636 54.7474 129.079 54.9199 129.632 54.9199C130.058 54.9199 130.423 54.8239 130.726 54.6318C131.029 54.4365 131.224 54.1696 131.312 53.8311H129.588V52.5908H132.879ZM140.588 52.7227C140.881 52.8464 141.109 53.0433 141.272 53.3135C141.438 53.5837 141.521 53.8929 141.521 54.2412C141.521 54.6481 141.417 55.0029 141.208 55.3057C141.003 55.6084 140.717 55.8379 140.349 55.9941C139.981 56.1504 139.571 56.2285 139.119 56.2285C138.653 56.2285 138.238 56.1488 137.873 55.9893C137.512 55.8298 137.227 55.6003 137.019 55.3008C136.814 55.0013 136.711 54.6481 136.711 54.2412C136.711 53.8864 136.793 53.5755 136.955 53.3086C137.118 53.0417 137.34 52.8431 137.62 52.7129C137.414 52.5729 137.247 52.3825 137.117 52.1416C136.986 51.9007 136.921 51.6468 136.921 51.3799C136.921 51.0413 137.014 50.737 137.2 50.4668C137.385 50.1966 137.644 49.985 137.976 49.832C138.311 49.679 138.692 49.6025 139.119 49.6025C139.545 49.6025 139.926 49.6807 140.261 49.8369C140.6 49.9932 140.862 50.2064 141.047 50.4766C141.236 50.7467 141.33 51.0511 141.33 51.3896C141.33 51.6761 141.262 51.9365 141.125 52.1709C140.989 52.4053 140.81 52.5892 140.588 52.7227ZM139.109 50.8428C138.874 50.8428 138.684 50.9062 138.538 51.0332C138.391 51.1569 138.318 51.3164 138.318 51.5117C138.318 51.7168 138.396 51.8828 138.552 52.0098C138.712 52.1367 138.9 52.2002 139.119 52.2002C139.333 52.2002 139.521 52.1351 139.68 52.0049C139.84 51.8747 139.919 51.7103 139.919 51.5117C139.919 51.3197 139.844 51.1602 139.695 51.0332C139.545 50.9062 139.35 50.8428 139.109 50.8428ZM139.109 54.9785C139.395 54.9785 139.626 54.9036 139.802 54.7539C139.981 54.6042 140.071 54.4105 140.071 54.1729C140.071 53.932 139.981 53.7399 139.802 53.5967C139.626 53.4535 139.399 53.3818 139.119 53.3818C138.832 53.3818 138.598 53.4551 138.415 53.6016C138.236 53.748 138.147 53.9385 138.147 54.1729C138.147 54.4137 138.236 54.609 138.415 54.7588C138.598 54.9053 138.829 54.9785 139.109 54.9785ZM147.561 53.6895V54.8711H146.74V56.1406H145.358V54.8711H142.448V53.8115L145.017 49.7295H146.74V53.6895H147.561ZM145.358 53.6895V51.4727L143.967 53.6895H145.358Z" fill="white"/>
<g clip-path="url(#clip2_1555_4060)">
<rect width="91.3381" height="5" transform="translate(10.457 67.6406)" fill="#28EFCB" fill-opacity="0.24"/>
<rect x="10.457" y="67.6406" width="63.4665" height="4.77698" fill="#28EFCB"/>
</g>
<path d="M118.979 67.7295C119.678 67.7295 120.229 67.9232 120.629 68.3105C121.029 68.6979 121.229 69.222 121.229 69.8828C121.229 70.3027 121.14 70.6738 120.961 70.9961C120.782 71.3184 120.52 71.5706 120.175 71.7529C119.833 71.932 119.424 72.0215 118.949 72.0215H117.719V74.1406H116.259V67.7295H118.979ZM118.681 70.7715C119.026 70.7715 119.28 70.682 119.442 70.5029C119.608 70.3206 119.691 70.1025 119.691 69.8486C119.691 69.6273 119.608 69.4303 119.442 69.2578C119.28 69.0853 119.029 68.999 118.69 68.999H117.719V70.7715H118.681ZM123.968 69.0527V70.2686H126.439V71.543H123.968V72.8223H126.742V74.1406H122.508V67.7295H126.742V69.0527H123.968ZM128.338 67.7295H130.921C131.767 67.7295 132.402 67.9069 132.825 68.2617C133.249 68.6133 133.46 69.1292 133.46 69.8096C133.46 70.249 133.366 70.625 133.177 70.9375C132.991 71.2467 132.72 71.4844 132.362 71.6504L133.529 74.1406H131.888L130.902 71.8994H129.798V74.1406H128.338V67.7295ZM130.911 70.6494C131.25 70.6494 131.502 70.5713 131.668 70.415C131.834 70.2588 131.917 70.0602 131.917 69.8193C131.917 69.585 131.837 69.3896 131.678 69.2334C131.518 69.0771 131.266 68.999 130.921 68.999H129.798V70.6494H130.911ZM141.584 67.7295V68.833L139.143 74.1406H137.624L140.012 68.9502H137.175V67.7295H141.584ZM144.885 74.2529C144.357 74.2529 143.9 74.1195 143.513 73.8525C143.129 73.5856 142.834 73.2015 142.629 72.7002C142.427 72.1989 142.326 71.613 142.326 70.9424C142.326 70.262 142.427 69.6696 142.629 69.165C142.834 68.6605 143.127 68.2747 143.508 68.0078C143.892 67.7376 144.351 67.6025 144.885 67.6025C145.412 67.6025 145.869 67.7376 146.257 68.0078C146.647 68.2747 146.947 68.6605 147.155 69.165C147.367 69.6696 147.473 70.262 147.473 70.9424C147.473 71.6162 147.367 72.2038 147.155 72.7051C146.947 73.2031 146.647 73.5856 146.257 73.8525C145.869 74.1195 145.412 74.2529 144.885 74.2529ZM144.895 72.9883C145.269 72.9883 145.55 72.8125 145.739 72.4609C145.928 72.1061 146.022 71.5999 146.022 70.9424C146.022 70.2816 145.928 69.7738 145.739 69.4189C145.55 69.0609 145.269 68.8818 144.895 68.8818C144.527 68.8818 144.245 69.0592 144.05 69.4141C143.858 69.7656 143.762 70.2751 143.762 70.9424C143.762 71.5967 143.858 72.1012 144.05 72.4561C144.245 72.8109 144.527 72.9883 144.895 72.9883Z" fill="white"/>
<rect x="1.21296" y="0.895576" width="155.827" height="88.4186" rx="7.38372" stroke="url(#paint0_linear_1555_4060)" stroke-opacity="0.2" stroke-width="1.23256"/>
<defs>
<linearGradient id="paint0_linear_1555_4060" x1="161.607" y1="207.598" x2="-121.144" y2="1.11466" gradientUnits="userSpaceOnUse">
<stop stop-color="white"/>
<stop offset="1" stop-color="white" stop-opacity="0"/>
</linearGradient>
<clipPath id="clip0_1555_4060">
<rect width="91.3381" height="5" fill="white" transform="translate(10.457 31.6406)"/>
</clipPath>
<clipPath id="clip1_1555_4060">
<rect width="91.3381" height="5" fill="white" transform="translate(10.457 49.6406)"/>
</clipPath>
<clipPath id="clip2_1555_4060">
<rect width="91.3381" height="5" fill="white" transform="translate(10.457 67.6406)"/>
</clipPath>
</defs>
</svg>
