<svg width="158" height="71" viewBox="0 0 158 71" fill="none" xmlns="http://www.w3.org/2000/svg">
<rect x="0.250977" y="0.173828" width="157.059" height="70.6512" rx="8" fill="#3D4047" fill-opacity="0.8"/>
<rect x="0.250977" y="0.173828" width="157.059" height="70.6512" rx="8" fill="white" fill-opacity="0.1"/>
<g clip-path="url(#clip0_1555_3833)">
<rect width="91.3381" height="5" transform="translate(10.1113 12.5352)" fill="#28EFCB" fill-opacity="0.24"/>
<rect x="10.1113" y="12.5352" width="71.7657" height="4.77698" fill="#28EFCB"/>
</g>
<path d="M114.463 14.5234C114.463 14.11 114.562 13.7503 114.761 13.4443C114.963 13.1383 115.243 12.9023 115.601 12.7363C115.962 12.5703 116.383 12.4873 116.865 12.4873C117.331 12.4873 117.746 12.5687 118.11 12.7314C118.475 12.8942 118.758 13.1253 118.96 13.4248C119.162 13.7243 119.266 14.0677 119.272 14.4551H117.764C117.757 14.2337 117.663 14.0547 117.48 13.918C117.298 13.7812 117.067 13.7129 116.787 13.7129C116.54 13.7129 116.341 13.7699 116.191 13.8838C116.042 13.9977 115.967 14.1507 115.967 14.3428C115.967 14.5218 116.03 14.6569 116.157 14.748C116.287 14.8392 116.479 14.9157 116.733 14.9775L117.744 15.207C118.311 15.3405 118.735 15.57 119.019 15.8955C119.302 16.221 119.443 16.6182 119.443 17.0869C119.443 17.5068 119.338 17.873 119.126 18.1855C118.918 18.498 118.621 18.7406 118.237 18.9131C117.856 19.0824 117.412 19.167 116.904 19.167C116.146 19.167 115.531 18.9831 115.059 18.6152C114.59 18.2474 114.333 17.7477 114.287 17.1162H115.786C115.806 17.3766 115.916 17.5785 116.118 17.7217C116.323 17.8649 116.592 17.9365 116.924 17.9365C117.23 17.9365 117.469 17.8747 117.642 17.751C117.817 17.6273 117.905 17.458 117.905 17.2432C117.905 17.0706 117.848 16.9372 117.734 16.8428C117.62 16.7451 117.461 16.6719 117.256 16.623L116.196 16.374C115.597 16.234 115.158 16.0046 114.878 15.6855C114.601 15.3665 114.463 14.9792 114.463 14.5234ZM120.864 12.624H122.324V15.1729H124.814V12.624H126.284V19.0352H124.814V16.4473H122.324V19.0352H120.864V12.624ZM132.743 13.9473H130.834V19.0352H129.374V13.9473H127.446V12.624H132.743V13.9473ZM140.291 15.6172C140.584 15.7409 140.812 15.9378 140.975 16.208C141.141 16.4782 141.224 16.7874 141.224 17.1357C141.224 17.5426 141.12 17.8975 140.912 18.2002C140.706 18.5029 140.42 18.7324 140.052 18.8887C139.684 19.0449 139.274 19.123 138.822 19.123C138.356 19.123 137.941 19.0433 137.577 18.8838C137.215 18.7243 136.93 18.4948 136.722 18.1953C136.517 17.8958 136.414 17.5426 136.414 17.1357C136.414 16.7809 136.496 16.4701 136.659 16.2031C136.821 15.9362 137.043 15.7376 137.323 15.6074C137.118 15.4674 136.95 15.277 136.82 15.0361C136.69 14.7952 136.624 14.5413 136.624 14.2744C136.624 13.9359 136.717 13.6315 136.903 13.3613C137.088 13.0911 137.347 12.8796 137.679 12.7266C138.014 12.5736 138.395 12.4971 138.822 12.4971C139.248 12.4971 139.629 12.5752 139.964 12.7314C140.303 12.8877 140.565 13.1009 140.75 13.3711C140.939 13.6413 141.034 13.9456 141.034 14.2842C141.034 14.5706 140.965 14.8311 140.829 15.0654C140.692 15.2998 140.513 15.4837 140.291 15.6172ZM138.812 13.7373C138.578 13.7373 138.387 13.8008 138.241 13.9277C138.094 14.0514 138.021 14.2109 138.021 14.4062C138.021 14.6113 138.099 14.7773 138.255 14.9043C138.415 15.0312 138.604 15.0947 138.822 15.0947C139.037 15.0947 139.224 15.0296 139.383 14.8994C139.543 14.7692 139.622 14.6048 139.622 14.4062C139.622 14.2142 139.548 14.0547 139.398 13.9277C139.248 13.8008 139.053 13.7373 138.812 13.7373ZM138.812 17.873C139.098 17.873 139.329 17.7982 139.505 17.6484C139.684 17.4987 139.774 17.305 139.774 17.0674C139.774 16.8265 139.684 16.6344 139.505 16.4912C139.329 16.348 139.102 16.2764 138.822 16.2764C138.535 16.2764 138.301 16.3496 138.119 16.4961C137.94 16.6426 137.85 16.833 137.85 17.0674C137.85 17.3083 137.94 17.5036 138.119 17.6533C138.301 17.7998 138.532 17.873 138.812 17.873ZM145.462 15.0752C145.966 15.1501 146.368 15.3617 146.668 15.71C146.971 16.055 147.122 16.4798 147.122 16.9844C147.122 17.4043 147.018 17.777 146.81 18.1025C146.604 18.4248 146.318 18.6771 145.95 18.8594C145.582 19.0417 145.166 19.1328 144.7 19.1328C144.241 19.1328 143.829 19.0433 143.465 18.8643C143.1 18.6852 142.819 18.4297 142.62 18.0977C142.422 17.7624 142.326 17.375 142.332 16.9355H143.729C143.729 17.2155 143.82 17.4434 144.002 17.6191C144.188 17.7949 144.427 17.8828 144.72 17.8828C145.006 17.8828 145.239 17.7998 145.418 17.6338C145.6 17.4678 145.691 17.2415 145.691 16.9551C145.691 16.6816 145.602 16.4668 145.423 16.3105C145.247 16.1543 145.013 16.0697 144.72 16.0566C144.638 16.0501 144.412 16.0469 144.041 16.0469H143.66V15.1143L144.959 13.8447H142.688V12.624H146.771V13.7764L145.462 15.0752Z" fill="white"/>
<g clip-path="url(#clip1_1555_3833)">
<rect width="91.3381" height="5" transform="translate(10.1113 30.5352)" fill="#C8FB11" fill-opacity="0.24"/>
<rect x="10.1113" y="30.5352" width="43.4444" height="4.77698" fill="#C8FB11"/>
</g>
<path d="M117.91 30.624C118.61 30.624 119.16 30.8177 119.561 31.2051C119.961 31.5924 120.161 32.1165 120.161 32.7773C120.161 33.1973 120.072 33.5684 119.893 33.8906C119.714 34.2129 119.451 34.4652 119.106 34.6475C118.765 34.8265 118.356 34.916 117.881 34.916H116.65V37.0352H115.19V30.624H117.91ZM117.612 33.666C117.957 33.666 118.211 33.5765 118.374 33.3975C118.54 33.2152 118.623 32.9971 118.623 32.7432C118.623 32.5218 118.54 32.3249 118.374 32.1523C118.211 31.9798 117.961 31.8936 117.622 31.8936H116.65V33.666H117.612ZM122.754 30.624H124.165L126.543 37.0352H124.995L124.521 35.7168H122.363L121.884 37.0352H120.361L122.754 30.624ZM124.101 34.4961L123.852 33.8027C123.794 33.6237 123.707 33.3551 123.593 32.9971L123.462 32.5967C123.442 32.6846 123.39 32.8473 123.305 33.085C123.224 33.3193 123.136 33.5586 123.042 33.8027L122.783 34.4961H124.101ZM127.499 32.5234C127.499 32.11 127.599 31.7503 127.797 31.4443C127.999 31.1383 128.279 30.9023 128.637 30.7363C128.998 30.5703 129.42 30.4873 129.902 30.4873C130.367 30.4873 130.782 30.5687 131.147 30.7314C131.511 30.8942 131.794 31.1253 131.996 31.4248C132.198 31.7243 132.302 32.0677 132.309 32.4551H130.8C130.793 32.2337 130.699 32.0547 130.517 31.918C130.335 31.7812 130.103 31.7129 129.823 31.7129C129.576 31.7129 129.377 31.7699 129.228 31.8838C129.078 31.9977 129.003 32.1507 129.003 32.3428C129.003 32.5218 129.067 32.6569 129.194 32.748C129.324 32.8392 129.516 32.9157 129.77 32.9775L130.78 33.207C131.347 33.3405 131.772 33.57 132.055 33.8955C132.338 34.221 132.48 34.6182 132.48 35.0869C132.48 35.5068 132.374 35.873 132.162 36.1855C131.954 36.498 131.658 36.7406 131.274 36.9131C130.893 37.0824 130.448 37.167 129.941 37.167C129.182 37.167 128.567 36.9831 128.095 36.6152C127.626 36.2474 127.369 35.7477 127.323 35.1162H128.822C128.842 35.3766 128.953 35.5785 129.154 35.7217C129.36 35.8649 129.628 35.9365 129.96 35.9365C130.266 35.9365 130.505 35.8747 130.678 35.751C130.854 35.6273 130.942 35.458 130.942 35.2432C130.942 35.0706 130.885 34.9372 130.771 34.8428C130.657 34.7451 130.497 34.6719 130.292 34.623L129.233 34.374C128.634 34.234 128.194 34.0046 127.914 33.6855C127.638 33.3665 127.499 32.9792 127.499 32.5234ZM141.346 34.584V35.7656H140.526V37.0352H139.144V35.7656H136.234V34.7061L138.802 30.624H140.526V34.584H141.346ZM139.144 34.584V32.3672L137.752 34.584H139.144ZM146.189 33.6172C146.482 33.7409 146.71 33.9378 146.873 34.208C147.039 34.4782 147.122 34.7874 147.122 35.1357C147.122 35.5426 147.018 35.8975 146.81 36.2002C146.604 36.5029 146.318 36.7324 145.95 36.8887C145.582 37.0449 145.172 37.123 144.72 37.123C144.254 37.123 143.839 37.0433 143.475 36.8838C143.113 36.7243 142.828 36.4948 142.62 36.1953C142.415 35.8958 142.312 35.5426 142.312 35.1357C142.312 34.7809 142.394 34.4701 142.557 34.2031C142.719 33.9362 142.941 33.7376 143.221 33.6074C143.016 33.4674 142.848 33.277 142.718 33.0361C142.588 32.7952 142.522 32.5413 142.522 32.2744C142.522 31.9359 142.615 31.6315 142.801 31.3613C142.986 31.0911 143.245 30.8796 143.577 30.7266C143.912 30.5736 144.293 30.4971 144.72 30.4971C145.146 30.4971 145.527 30.5752 145.862 30.7314C146.201 30.8877 146.463 31.1009 146.648 31.3711C146.837 31.6413 146.932 31.9456 146.932 32.2842C146.932 32.5706 146.863 32.8311 146.727 33.0654C146.59 33.2998 146.411 33.4837 146.189 33.6172ZM144.71 31.7373C144.476 31.7373 144.285 31.8008 144.139 31.9277C143.992 32.0514 143.919 32.2109 143.919 32.4062C143.919 32.6113 143.997 32.7773 144.153 32.9043C144.313 33.0312 144.502 33.0947 144.72 33.0947C144.935 33.0947 145.122 33.0296 145.281 32.8994C145.441 32.7692 145.521 32.6048 145.521 32.4062C145.521 32.2142 145.446 32.0547 145.296 31.9277C145.146 31.8008 144.951 31.7373 144.71 31.7373ZM144.71 35.873C144.996 35.873 145.228 35.7982 145.403 35.6484C145.582 35.4987 145.672 35.305 145.672 35.0674C145.672 34.8265 145.582 34.6344 145.403 34.4912C145.228 34.348 145 34.2764 144.72 34.2764C144.433 34.2764 144.199 34.3496 144.017 34.4961C143.838 34.6426 143.748 34.833 143.748 35.0674C143.748 35.3083 143.838 35.5036 144.017 35.6533C144.199 35.7998 144.43 35.873 144.71 35.873Z" fill="white"/>
<g clip-path="url(#clip2_1555_3833)">
<rect width="91.3381" height="5" transform="translate(10.1113 48.5352)" fill="#C8FB11" fill-opacity="0.24"/>
<rect x="10.1113" y="48.5352" width="64.0336" height="4.77698" fill="#28EFCB"/>
</g>
<path d="M116.426 48.624C117.126 48.624 117.676 48.8177 118.076 49.2051C118.477 49.5924 118.677 50.1165 118.677 50.7773C118.677 51.1973 118.587 51.5684 118.408 51.8906C118.229 52.2129 117.967 52.4652 117.622 52.6475C117.28 52.8265 116.872 52.916 116.396 52.916H115.166V55.0352H113.706V48.624H116.426ZM116.128 51.666C116.473 51.666 116.727 51.5765 116.89 51.3975C117.056 51.2152 117.139 50.9971 117.139 50.7432C117.139 50.5218 117.056 50.3249 116.89 50.1523C116.727 49.9798 116.476 49.8936 116.138 49.8936H115.166V51.666H116.128ZM119.956 48.624H121.416V51.1729H123.906V48.624H125.376V55.0352H123.906V52.4473H121.416V55.0352H119.956V48.624ZM128.158 48.624L128.798 49.7373C128.984 50.0628 129.145 50.3574 129.281 50.6211C129.418 50.8848 129.503 51.0492 129.535 51.1143C129.568 51.0394 129.653 50.8717 129.789 50.6113C129.926 50.3477 130.089 50.0563 130.278 49.7373L130.927 48.624H132.568L130.248 52.5352V55.0352H128.779V52.5352L126.464 48.624H128.158ZM140.038 51.6172C140.33 51.7409 140.558 51.9378 140.721 52.208C140.887 52.4782 140.97 52.7874 140.97 53.1357C140.97 53.5426 140.866 53.8975 140.658 54.2002C140.453 54.5029 140.166 54.7324 139.798 54.8887C139.43 55.0449 139.02 55.123 138.568 55.123C138.102 55.123 137.687 55.0433 137.323 54.8838C136.961 54.7243 136.676 54.4948 136.468 54.1953C136.263 53.8958 136.161 53.5426 136.161 53.1357C136.161 52.7809 136.242 52.4701 136.405 52.2031C136.567 51.9362 136.789 51.7376 137.069 51.6074C136.864 51.4674 136.696 51.277 136.566 51.0361C136.436 50.7952 136.371 50.5413 136.371 50.2744C136.371 49.9359 136.463 49.6315 136.649 49.3613C136.834 49.0911 137.093 48.8796 137.425 48.7266C137.76 48.5736 138.141 48.4971 138.568 48.4971C138.994 48.4971 139.375 48.5752 139.71 48.7314C140.049 48.8877 140.311 49.1009 140.496 49.3711C140.685 49.6413 140.78 49.9456 140.78 50.2842C140.78 50.5706 140.711 50.8311 140.575 51.0654C140.438 51.2998 140.259 51.4837 140.038 51.6172ZM138.558 49.7373C138.324 49.7373 138.133 49.8008 137.987 49.9277C137.84 50.0514 137.767 50.2109 137.767 50.4062C137.767 50.6113 137.845 50.7773 138.001 50.9043C138.161 51.0312 138.35 51.0947 138.568 51.0947C138.783 51.0947 138.97 51.0296 139.129 50.8994C139.289 50.7692 139.369 50.6048 139.369 50.4062C139.369 50.2142 139.294 50.0547 139.144 49.9277C138.994 49.8008 138.799 49.7373 138.558 49.7373ZM138.558 53.873C138.844 53.873 139.076 53.7982 139.251 53.6484C139.43 53.4987 139.52 53.305 139.52 53.0674C139.52 52.8265 139.43 52.6344 139.251 52.4912C139.076 52.348 138.848 52.2764 138.568 52.2764C138.281 52.2764 138.047 52.3496 137.865 52.4961C137.686 52.6426 137.596 52.833 137.596 53.0674C137.596 53.3083 137.686 53.5036 137.865 53.6533C138.047 53.7998 138.278 53.873 138.558 53.873ZM144.539 55.1475C144.012 55.1475 143.554 55.014 143.167 54.7471C142.783 54.4801 142.488 54.096 142.283 53.5947C142.081 53.0934 141.98 52.5075 141.98 51.8369C141.98 51.1566 142.081 50.5641 142.283 50.0596C142.488 49.555 142.781 49.1693 143.162 48.9023C143.546 48.6322 144.005 48.4971 144.539 48.4971C145.066 48.4971 145.524 48.6322 145.911 48.9023C146.302 49.1693 146.601 49.555 146.81 50.0596C147.021 50.5641 147.127 51.1566 147.127 51.8369C147.127 52.5107 147.021 53.0983 146.81 53.5996C146.601 54.0977 146.302 54.4801 145.911 54.7471C145.524 55.014 145.066 55.1475 144.539 55.1475ZM144.549 53.8828C144.923 53.8828 145.205 53.707 145.394 53.3555C145.582 53.0007 145.677 52.4945 145.677 51.8369C145.677 51.1761 145.582 50.6683 145.394 50.3135C145.205 49.9554 144.923 49.7764 144.549 49.7764C144.181 49.7764 143.899 49.9538 143.704 50.3086C143.512 50.6602 143.416 51.1696 143.416 51.8369C143.416 52.4912 143.512 52.9958 143.704 53.3506C143.899 53.7054 144.181 53.8828 144.549 53.8828Z" fill="white"/>
<rect x="0.867256" y="0.790107" width="155.827" height="69.4186" rx="7.38372" stroke="url(#paint0_linear_1555_3833)" stroke-opacity="0.2" stroke-width="1.23256"/>
<defs>
<linearGradient id="paint0_linear_1555_3833" x1="161.261" y1="163.555" x2="-71.9887" y2="-52.587" gradientUnits="userSpaceOnUse">
<stop stop-color="white"/>
<stop offset="1" stop-color="white" stop-opacity="0"/>
</linearGradient>
<clipPath id="clip0_1555_3833">
<rect width="91.3381" height="5" fill="white" transform="translate(10.1113 12.5352)"/>
</clipPath>
<clipPath id="clip1_1555_3833">
<rect width="91.3381" height="5" fill="white" transform="translate(10.1113 30.5352)"/>
</clipPath>
<clipPath id="clip2_1555_3833">
<rect width="91.3381" height="5" fill="white" transform="translate(10.1113 48.5352)"/>
</clipPath>
</defs>
</svg>
