<svg width="158" height="90" viewBox="0 0 158 90" fill="none" xmlns="http://www.w3.org/2000/svg">
<rect x="0.59668" y="0.279297" width="157.059" height="89.6512" rx="8" fill="#3D4047" fill-opacity="0.96"/>
<rect x="0.59668" y="0.279297" width="157.059" height="89.6512" rx="8" fill="white" fill-opacity="0.1"/>
<path d="M12.865 11.7406V18.1406H10.969V11.7406H12.865ZM20.4989 11.7406H22.4269V18.1406H20.5229V14.1086L18.3229 16.5166H18.3149L16.1149 14.1246V18.1406H14.2029V11.7406H16.1389L18.3149 14.0926L20.4989 11.7406ZM29.6533 11.7406L30.6533 12.7406V15.2126L29.6533 16.2126H25.6613V18.1406H23.7653V11.7406H29.6533ZM28.7653 14.6686V13.3406H25.6613V14.6686H28.7653ZM39.194 18.1406H36.818L35.042 16.0046H33.794V18.1406H31.882V11.7406H37.85L38.842 12.7406V15.0126L37.85 16.0046H37.138L39.194 18.1406ZM33.794 13.3486V14.4286H36.93V13.3486H33.794ZM46.1507 11.7406L47.1507 12.7406V17.1406L46.1507 18.1406H41.0147L40.0147 17.1406V12.7406L41.0147 11.7406H46.1507ZM45.2547 13.3406H41.9107V16.5406H45.2547V13.3406ZM53.8513 11.7406H55.9793L52.8113 18.1406H50.8833L47.7313 11.7406H49.8993L51.8913 15.9086L53.8513 11.7406ZM63.2325 13.3406H58.8085V14.1326H62.1045V15.7006H58.8085V16.5406H63.2325V18.1406H56.9125V11.7406H63.2325V13.3406ZM70.6767 11.7406H72.6047V18.1406H70.7007V14.1086L68.5007 16.5166H68.4927L66.2927 14.1246V18.1406H64.3807V11.7406H66.3167L68.4927 14.0926L70.6767 11.7406ZM80.2631 13.3406H75.8391V14.1326H79.1351V15.7006H75.8391V16.5406H80.2631V18.1406H73.9431V11.7406H80.2631V13.3406ZM87.0273 11.7406H88.8353V18.1406H86.9393L83.2273 14.0046V18.1406H81.4193V11.7406H83.3313L87.0273 15.8606V11.7406ZM92.3208 18.1406V13.3406H89.8168V11.7406H96.7128V13.3406H94.2088V18.1406H92.3208Z" fill="white"/>
<g clip-path="url(#clip0_1555_4040)">
<rect width="91.3381" height="5" transform="translate(10.457 31.6406)" fill="#FF005B" fill-opacity="0.24"/>
<rect x="10.457" y="31.6406" width="42.711" height="4.77698" fill="#FF005B"/>
</g>
<path d="M117.982 33.0527V34.3711H120.346L120.336 35.6406H117.982V38.1406H116.522V31.7295H120.785V33.0527H117.982ZM121.976 33.6289C121.976 33.2155 122.075 32.8558 122.274 32.5498C122.476 32.2438 122.756 32.0078 123.114 31.8418C123.475 31.6758 123.897 31.5928 124.379 31.5928C124.844 31.5928 125.259 31.6742 125.624 31.8369C125.988 31.9997 126.271 32.2308 126.473 32.5303C126.675 32.8298 126.779 33.1732 126.786 33.5605H125.277C125.27 33.3392 125.176 33.1602 124.994 33.0234C124.811 32.8867 124.58 32.8184 124.3 32.8184C124.053 32.8184 123.854 32.8753 123.705 32.9893C123.555 33.1032 123.48 33.2562 123.48 33.4482C123.48 33.6273 123.544 33.7624 123.671 33.8535C123.801 33.9447 123.993 34.0212 124.247 34.083L125.257 34.3125C125.824 34.446 126.249 34.6755 126.532 35.001C126.815 35.3265 126.957 35.7236 126.957 36.1924C126.957 36.6123 126.851 36.9785 126.639 37.291C126.431 37.6035 126.135 37.846 125.751 38.0186C125.37 38.1878 124.925 38.2725 124.418 38.2725C123.659 38.2725 123.044 38.0885 122.572 37.7207C122.103 37.3529 121.846 36.8532 121.8 36.2217H123.299C123.319 36.4821 123.43 36.6839 123.631 36.8271C123.837 36.9704 124.105 37.042 124.437 37.042C124.743 37.042 124.982 36.9801 125.155 36.8564C125.331 36.7327 125.419 36.5635 125.419 36.3486C125.419 36.1761 125.362 36.0426 125.248 35.9482C125.134 35.8506 124.974 35.7773 124.769 35.7285L123.71 35.4795C123.111 35.3395 122.671 35.11 122.391 34.791C122.115 34.472 121.976 34.0846 121.976 33.6289ZM133.128 33.0527H131.219V38.1406H129.759V33.0527H127.83V31.7295H133.128V33.0527ZM139.939 34.1807C140.443 34.2555 140.845 34.4671 141.145 34.8154C141.448 35.1605 141.599 35.5853 141.599 36.0898C141.599 36.5098 141.495 36.8825 141.287 37.208C141.081 37.5303 140.795 37.7826 140.427 37.9648C140.059 38.1471 139.643 38.2383 139.177 38.2383C138.718 38.2383 138.306 38.1488 137.942 37.9697C137.577 37.7907 137.296 37.5352 137.097 37.2031C136.899 36.8678 136.802 36.4805 136.809 36.041H138.205C138.205 36.321 138.297 36.5488 138.479 36.7246C138.664 36.9004 138.904 36.9883 139.197 36.9883C139.483 36.9883 139.716 36.9053 139.895 36.7393C140.077 36.5732 140.168 36.347 140.168 36.0605C140.168 35.7871 140.079 35.5723 139.9 35.416C139.724 35.2598 139.49 35.1751 139.197 35.1621C139.115 35.1556 138.889 35.1523 138.518 35.1523H138.137V34.2197L139.436 32.9502H137.165V31.7295H141.247V32.8818L139.939 34.1807ZM146.535 34.7227C146.828 34.8464 147.056 35.0433 147.219 35.3135C147.385 35.5837 147.468 35.8929 147.468 36.2412C147.468 36.6481 147.364 37.0029 147.155 37.3057C146.95 37.6084 146.664 37.8379 146.296 37.9941C145.928 38.1504 145.518 38.2285 145.065 38.2285C144.6 38.2285 144.185 38.1488 143.82 37.9893C143.459 37.8298 143.174 37.6003 142.966 37.3008C142.761 37.0013 142.658 36.6481 142.658 36.2412C142.658 35.8864 142.74 35.5755 142.902 35.3086C143.065 35.0417 143.286 34.8431 143.566 34.7129C143.361 34.5729 143.194 34.3825 143.063 34.1416C142.933 33.9007 142.868 33.6468 142.868 33.3799C142.868 33.0413 142.961 32.737 143.146 32.4668C143.332 32.1966 143.591 31.985 143.923 31.832C144.258 31.679 144.639 31.6025 145.065 31.6025C145.492 31.6025 145.873 31.6807 146.208 31.8369C146.547 31.9932 146.809 32.2064 146.994 32.4766C147.183 32.7467 147.277 33.0511 147.277 33.3896C147.277 33.6761 147.209 33.9365 147.072 34.1709C146.936 34.4053 146.757 34.5892 146.535 34.7227ZM145.056 32.8428C144.821 32.8428 144.631 32.9062 144.484 33.0332C144.338 33.1569 144.265 33.3164 144.265 33.5117C144.265 33.7168 144.343 33.8828 144.499 34.0098C144.659 34.1367 144.847 34.2002 145.065 34.2002C145.28 34.2002 145.467 34.1351 145.627 34.0049C145.786 33.8747 145.866 33.7103 145.866 33.5117C145.866 33.3197 145.791 33.1602 145.642 33.0332C145.492 32.9062 145.297 32.8428 145.056 32.8428ZM145.056 36.9785C145.342 36.9785 145.573 36.9036 145.749 36.7539C145.928 36.6042 146.018 36.4105 146.018 36.1729C146.018 35.932 145.928 35.7399 145.749 35.5967C145.573 35.4535 145.345 35.3818 145.065 35.3818C144.779 35.3818 144.545 35.4551 144.362 35.6016C144.183 35.748 144.094 35.9385 144.094 36.1729C144.094 36.4137 144.183 36.609 144.362 36.7588C144.545 36.9053 144.776 36.9785 145.056 36.9785Z" fill="white"/>
<g clip-path="url(#clip1_1555_4040)">
<rect width="91.3381" height="5" transform="translate(10.457 49.6406)" fill="#28EFCB" fill-opacity="0.24"/>
<rect x="10.457" y="49.6406" width="67.8761" height="4.77698" fill="#28EFCB"/>
</g>
<path d="M119.896 49.7295H121.308L123.686 56.1406H122.138L121.664 54.8223H119.506L119.027 56.1406H117.504L119.896 49.7295ZM121.244 53.6016L120.995 52.9082C120.937 52.7292 120.85 52.4606 120.736 52.1025L120.604 51.7021C120.585 51.79 120.533 51.9528 120.448 52.1904C120.367 52.4248 120.279 52.6641 120.185 52.9082L119.926 53.6016H121.244ZM130.731 52.5908V53.2793C130.731 53.8717 130.593 54.3942 130.316 54.8467C130.039 55.2959 129.652 55.6458 129.154 55.8965C128.659 56.1471 128.094 56.2725 127.46 56.2725C126.799 56.2725 126.218 56.1357 125.716 55.8623C125.218 55.5889 124.833 55.2048 124.559 54.71C124.289 54.2119 124.154 53.6357 124.154 52.9814C124.154 52.3206 124.296 51.7347 124.579 51.2236C124.862 50.7093 125.257 50.3089 125.765 50.0225C126.276 49.736 126.862 49.5928 127.523 49.5928C128.07 49.5928 128.563 49.6888 129.003 49.8809C129.442 50.0729 129.802 50.3431 130.082 50.6914C130.362 51.0365 130.542 51.4368 130.624 51.8926H129.061C128.954 51.5996 128.76 51.3701 128.48 51.2041C128.2 51.0348 127.871 50.9502 127.494 50.9502C126.927 50.9502 126.48 51.1325 126.151 51.4971C125.825 51.8584 125.663 52.3467 125.663 52.9619C125.663 53.5739 125.827 54.054 126.156 54.4023C126.488 54.7474 126.931 54.9199 127.484 54.9199C127.91 54.9199 128.275 54.8239 128.578 54.6318C128.88 54.4365 129.076 54.1696 129.164 53.8311H127.44V52.5908H130.731ZM132.137 56.1406V49.7295H133.597V56.1406H132.137ZM141.936 49.7295V50.833L139.495 56.1406H137.976L140.364 50.9502H137.527V49.7295H141.936ZM145.28 54.8711H147.39V56.1406H143.171V55.1299L145.461 52.7422C145.627 52.5632 145.757 52.3939 145.852 52.2344C145.946 52.0716 145.993 51.8877 145.993 51.6826C145.993 51.4352 145.918 51.2415 145.769 51.1016C145.622 50.9616 145.424 50.8916 145.173 50.8916C144.893 50.8916 144.675 50.9762 144.519 51.1455C144.366 51.3148 144.299 51.5361 144.318 51.8096H142.932C142.906 51.3766 142.99 50.9925 143.186 50.6572C143.381 50.3187 143.659 50.0583 144.021 49.876C144.382 49.6937 144.792 49.6025 145.251 49.6025C145.677 49.6025 146.055 49.6839 146.384 49.8467C146.716 50.0094 146.971 50.2389 147.15 50.5352C147.329 50.8314 147.419 51.1764 147.419 51.5703C147.419 51.9837 147.336 52.3369 147.17 52.6299C147.004 52.9229 146.791 53.2126 146.53 53.499L145.28 54.8711Z" fill="white"/>
<g clip-path="url(#clip2_1555_4040)">
<rect width="91.3381" height="5" transform="translate(10.457 67.6406)" fill="#28EFCB" fill-opacity="0.24"/>
<rect x="10.457" y="67.6406" width="75.8459" height="4.77698" fill="#28EFCB"/>
</g>
<path d="M114.916 69.0527V70.2686H117.387V71.543H114.916V72.8223H117.689V74.1406H113.456V67.7295H117.689V69.0527H114.916ZM124.715 67.7295V74.1406H123.358L120.726 70.2588V74.1406H119.286V67.7295H120.648L123.265 71.6211V67.7295H124.715ZM129.095 67.7295C129.713 67.7295 130.267 67.8678 130.755 68.1445C131.247 68.4212 131.631 68.8053 131.907 69.2969C132.184 69.7852 132.322 70.3402 132.322 70.9619C132.322 71.5739 132.186 72.1224 131.912 72.6074C131.639 73.0892 131.256 73.4652 130.765 73.7354C130.277 74.0055 129.72 74.1406 129.095 74.1406H126.483V67.7295H129.095ZM128.953 72.8223C129.513 72.8223 129.958 72.6514 130.286 72.3096C130.618 71.9645 130.784 71.5153 130.784 70.9619C130.784 70.389 130.618 69.9284 130.286 69.5801C129.958 69.2285 129.513 69.0527 128.953 69.0527H127.943V72.8223H128.953ZM138.752 67.6123C139.254 67.6123 139.691 67.7132 140.066 67.915C140.443 68.1136 140.732 68.3838 140.93 68.7256C141.132 69.0674 141.233 69.445 141.233 69.8584C141.233 70.2718 141.15 70.6462 140.984 70.9814C140.818 71.3135 140.583 71.6927 140.281 72.1191L138.884 74.1406H137.322L138.83 72.0605C138.684 72.0736 138.581 72.0801 138.523 72.0801C138.09 72.0801 137.696 71.9889 137.341 71.8066C136.99 71.6211 136.711 71.3656 136.506 71.04C136.304 70.7145 136.204 70.3385 136.204 69.9121C136.204 69.4661 136.313 69.069 136.531 68.7207C136.752 68.3724 137.056 68.1006 137.444 67.9053C137.831 67.71 138.267 67.6123 138.752 67.6123ZM137.634 69.873C137.634 70.1725 137.737 70.4102 137.942 70.5859C138.15 70.7617 138.404 70.8496 138.704 70.8496C139.01 70.8496 139.265 70.7633 139.47 70.5908C139.678 70.4183 139.783 70.1823 139.783 69.8828C139.783 69.5768 139.678 69.3376 139.47 69.165C139.265 68.9893 139.013 68.9014 138.713 68.9014C138.414 68.9014 138.158 68.9876 137.947 69.1602C137.738 69.3327 137.634 69.5703 137.634 69.873ZM144.885 74.2529C144.357 74.2529 143.9 74.1195 143.513 73.8525C143.129 73.5856 142.834 73.2015 142.629 72.7002C142.427 72.1989 142.326 71.613 142.326 70.9424C142.326 70.262 142.427 69.6696 142.629 69.165C142.834 68.6605 143.127 68.2747 143.508 68.0078C143.892 67.7376 144.351 67.6025 144.885 67.6025C145.412 67.6025 145.869 67.7376 146.257 68.0078C146.647 68.2747 146.947 68.6605 147.155 69.165C147.367 69.6696 147.473 70.262 147.473 70.9424C147.473 71.6162 147.367 72.2038 147.155 72.7051C146.947 73.2031 146.647 73.5856 146.257 73.8525C145.869 74.1195 145.412 74.2529 144.885 74.2529ZM144.895 72.9883C145.269 72.9883 145.55 72.8125 145.739 72.4609C145.928 72.1061 146.022 71.5999 146.022 70.9424C146.022 70.2816 145.928 69.7738 145.739 69.4189C145.55 69.0609 145.269 68.8818 144.895 68.8818C144.527 68.8818 144.245 69.0592 144.05 69.4141C143.858 69.7656 143.762 70.2751 143.762 70.9424C143.762 71.5967 143.858 72.1012 144.05 72.4561C144.245 72.8109 144.527 72.9883 144.895 72.9883Z" fill="white"/>
<rect x="1.21296" y="0.895576" width="155.827" height="88.4186" rx="7.38372" stroke="url(#paint0_linear_1555_4040)" stroke-opacity="0.2" stroke-width="1.23256"/>
<defs>
<linearGradient id="paint0_linear_1555_4040" x1="161.607" y1="207.598" x2="-121.144" y2="1.11466" gradientUnits="userSpaceOnUse">
<stop stop-color="white"/>
<stop offset="1" stop-color="white" stop-opacity="0"/>
</linearGradient>
<clipPath id="clip0_1555_4040">
<rect width="91.3381" height="5" fill="white" transform="translate(10.457 31.6406)"/>
</clipPath>
<clipPath id="clip1_1555_4040">
<rect width="91.3381" height="5" fill="white" transform="translate(10.457 49.6406)"/>
</clipPath>
<clipPath id="clip2_1555_4040">
<rect width="91.3381" height="5" fill="white" transform="translate(10.457 67.6406)"/>
</clipPath>
</defs>
</svg>
