<svg width="158" height="90" viewBox="0 0 158 90" fill="none" xmlns="http://www.w3.org/2000/svg">
<rect x="0.59668" y="0.279297" width="157.059" height="89.6512" rx="8" fill="#3D4047" fill-opacity="0.96"/>
<rect x="0.59668" y="0.279297" width="157.059" height="89.6512" rx="8" fill="white" fill-opacity="0.1"/>
<path d="M12.865 11.7406V18.1406H10.969V11.7406H12.865ZM20.4989 11.7406H22.4269V18.1406H20.5229V14.1086L18.3229 16.5166H18.3149L16.1149 14.1246V18.1406H14.2029V11.7406H16.1389L18.3149 14.0926L20.4989 11.7406ZM29.6533 11.7406L30.6533 12.7406V15.2126L29.6533 16.2126H25.6613V18.1406H23.7653V11.7406H29.6533ZM28.7653 14.6686V13.3406H25.6613V14.6686H28.7653ZM39.194 18.1406H36.818L35.042 16.0046H33.794V18.1406H31.882V11.7406H37.85L38.842 12.7406V15.0126L37.85 16.0046H37.138L39.194 18.1406ZM33.794 13.3486V14.4286H36.93V13.3486H33.794ZM46.1507 11.7406L47.1507 12.7406V17.1406L46.1507 18.1406H41.0147L40.0147 17.1406V12.7406L41.0147 11.7406H46.1507ZM45.2547 13.3406H41.9107V16.5406H45.2547V13.3406ZM53.8513 11.7406H55.9793L52.8113 18.1406H50.8833L47.7313 11.7406H49.8993L51.8913 15.9086L53.8513 11.7406ZM63.2325 13.3406H58.8085V14.1326H62.1045V15.7006H58.8085V16.5406H63.2325V18.1406H56.9125V11.7406H63.2325V13.3406ZM70.6767 11.7406H72.6047V18.1406H70.7007V14.1086L68.5007 16.5166H68.4927L66.2927 14.1246V18.1406H64.3807V11.7406H66.3167L68.4927 14.0926L70.6767 11.7406ZM80.2631 13.3406H75.8391V14.1326H79.1351V15.7006H75.8391V16.5406H80.2631V18.1406H73.9431V11.7406H80.2631V13.3406ZM87.0273 11.7406H88.8353V18.1406H86.9393L83.2273 14.0046V18.1406H81.4193V11.7406H83.3313L87.0273 15.8606V11.7406ZM92.3208 18.1406V13.3406H89.8168V11.7406H96.7128V13.3406H94.2088V18.1406H92.3208Z" fill="white"/>
<g clip-path="url(#clip0_1555_3813)">
<rect width="91.3381" height="5" transform="translate(10.457 31.6406)" fill="#28EFCB" fill-opacity="0.24"/>
<rect x="10.457" y="31.6406" width="80.0813" height="4.77698" fill="#28EFCB"/>
</g>
<path d="M119.369 31.7295C119.988 31.7295 120.541 31.8678 121.029 32.1445C121.521 32.4212 121.905 32.8053 122.182 33.2969C122.458 33.7852 122.597 34.3402 122.597 34.9619C122.597 35.5739 122.46 36.1224 122.187 36.6074C121.913 37.0892 121.531 37.4652 121.039 37.7354C120.551 38.0055 119.994 38.1406 119.369 38.1406H116.757V31.7295H119.369ZM119.228 36.8223C119.787 36.8223 120.232 36.6514 120.561 36.3096C120.893 35.9645 121.059 35.5153 121.059 34.9619C121.059 34.389 120.893 33.9284 120.561 33.5801C120.232 33.2285 119.787 33.0527 119.228 33.0527H118.217V36.8223H119.228ZM124.003 31.7295H126.586C127.432 31.7295 128.067 31.9069 128.49 32.2617C128.913 32.6133 129.125 33.1292 129.125 33.8096C129.125 34.249 129.03 34.625 128.841 34.9375C128.656 35.2467 128.384 35.4844 128.026 35.6504L129.193 38.1406H127.552L126.566 35.8994H125.462V38.1406H124.003V31.7295ZM126.576 34.6494C126.914 34.6494 127.167 34.5713 127.333 34.415C127.499 34.2588 127.582 34.0602 127.582 33.8193C127.582 33.585 127.502 33.3896 127.342 33.2334C127.183 33.0771 126.931 32.999 126.586 32.999H125.462V34.6494H126.576ZM130.604 38.1406V31.7295H132.064V38.1406H130.604ZM138.782 31.6123C139.283 31.6123 139.721 31.7132 140.095 31.915C140.473 32.1136 140.761 32.3838 140.959 32.7256C141.161 33.0674 141.262 33.445 141.262 33.8584C141.262 34.2718 141.179 34.6462 141.013 34.9814C140.847 35.3135 140.613 35.6927 140.31 36.1191L138.913 38.1406H137.351L138.86 36.0605C138.713 36.0736 138.611 36.0801 138.552 36.0801C138.119 36.0801 137.725 35.9889 137.371 35.8066C137.019 35.6211 136.741 35.3656 136.536 35.04C136.334 34.7145 136.233 34.3385 136.233 33.9121C136.233 33.4661 136.342 33.069 136.56 32.7207C136.781 32.3724 137.086 32.1006 137.473 31.9053C137.86 31.71 138.297 31.6123 138.782 31.6123ZM137.663 33.873C137.663 34.1725 137.766 34.4102 137.971 34.5859C138.179 34.7617 138.433 34.8496 138.733 34.8496C139.039 34.8496 139.294 34.7633 139.499 34.5908C139.708 34.4183 139.812 34.1823 139.812 33.8828C139.812 33.5768 139.708 33.3376 139.499 33.165C139.294 32.9893 139.042 32.9014 138.743 32.9014C138.443 32.9014 138.188 32.9876 137.976 33.1602C137.768 33.3327 137.663 33.5703 137.663 33.873ZM145.114 33.7998C145.547 33.7998 145.939 33.891 146.291 34.0732C146.646 34.2523 146.924 34.5046 147.126 34.8301C147.331 35.1556 147.434 35.5332 147.434 35.9629C147.434 36.3958 147.325 36.7865 147.106 37.1348C146.892 37.4798 146.589 37.75 146.198 37.9453C145.808 38.1406 145.363 38.2383 144.865 38.2383C144.364 38.2383 143.926 38.1406 143.552 37.9453C143.181 37.75 142.896 37.4831 142.697 37.1445C142.502 36.8027 142.404 36.4251 142.404 36.0117C142.404 35.6048 142.487 35.2288 142.653 34.8838C142.819 34.5355 143.049 34.1514 143.342 33.7314L144.753 31.7295H146.306L144.802 33.8193C144.935 33.8063 145.039 33.7998 145.114 33.7998ZM144.914 36.9785C145.214 36.9785 145.467 36.889 145.676 36.71C145.887 36.5309 145.993 36.2917 145.993 35.9922C145.993 35.6927 145.889 35.4551 145.681 35.2793C145.476 35.1003 145.227 35.0107 144.934 35.0107C144.628 35.0107 144.369 35.1003 144.157 35.2793C143.949 35.4551 143.845 35.6927 143.845 35.9922C143.845 36.2982 143.947 36.5391 144.152 36.7148C144.361 36.8906 144.615 36.9785 144.914 36.9785Z" fill="white"/>
<g clip-path="url(#clip1_1555_3813)">
<rect width="91.3381" height="5" transform="translate(10.457 49.6406)" fill="#C8FB11" fill-opacity="0.24"/>
<rect x="10.457" y="49.6406" width="48.4334" height="4.77698" fill="#C8FB11"/>
</g>
<path d="M114.047 51.6289C114.047 51.2155 114.146 50.8558 114.345 50.5498C114.547 50.2438 114.826 50.0078 115.185 49.8418C115.546 49.6758 115.967 49.5928 116.449 49.5928C116.915 49.5928 117.33 49.6742 117.694 49.8369C118.059 49.9997 118.342 50.2308 118.544 50.5303C118.746 50.8298 118.85 51.1732 118.856 51.5605H117.348C117.341 51.3392 117.247 51.1602 117.064 51.0234C116.882 50.8867 116.651 50.8184 116.371 50.8184C116.124 50.8184 115.925 50.8753 115.775 50.9893C115.626 51.1032 115.551 51.2562 115.551 51.4482C115.551 51.6273 115.614 51.7624 115.741 51.8535C115.871 51.9447 116.063 52.0212 116.317 52.083L117.328 52.3125C117.895 52.446 118.319 52.6755 118.603 53.001C118.886 53.3265 119.027 53.7236 119.027 54.1924C119.027 54.6123 118.922 54.9785 118.71 55.291C118.502 55.6035 118.205 55.846 117.821 56.0186C117.44 56.1878 116.996 56.2725 116.488 56.2725C115.73 56.2725 115.115 56.0885 114.643 55.7207C114.174 55.3529 113.917 54.8532 113.871 54.2217H115.37C115.39 54.4821 115.5 54.6839 115.702 54.8271C115.907 54.9704 116.176 55.042 116.508 55.042C116.814 55.042 117.053 54.9801 117.226 54.8564C117.401 54.7327 117.489 54.5635 117.489 54.3486C117.489 54.1761 117.432 54.0426 117.318 53.9482C117.204 53.8506 117.045 53.7773 116.84 53.7285L115.78 53.4795C115.181 53.3395 114.742 53.11 114.462 52.791C114.185 52.472 114.047 52.0846 114.047 51.6289ZM123.168 49.7295C123.867 49.7295 124.418 49.9232 124.818 50.3105C125.218 50.6979 125.419 51.222 125.419 51.8828C125.419 52.3027 125.329 52.6738 125.15 52.9961C124.971 53.3184 124.709 53.5706 124.364 53.7529C124.022 53.932 123.614 54.0215 123.138 54.0215H121.908V56.1406H120.448V49.7295H123.168ZM122.87 52.7715C123.215 52.7715 123.469 52.682 123.631 52.5029C123.797 52.3206 123.88 52.1025 123.88 51.8486C123.88 51.6273 123.797 51.4303 123.631 51.2578C123.469 51.0853 123.218 50.999 122.879 50.999H121.908V52.7715H122.87ZM129.31 49.7295C129.928 49.7295 130.482 49.8678 130.97 50.1445C131.461 50.4212 131.846 50.8053 132.122 51.2969C132.399 51.7852 132.537 52.3402 132.537 52.9619C132.537 53.5739 132.401 54.1224 132.127 54.6074C131.854 55.0892 131.471 55.4652 130.98 55.7354C130.491 56.0055 129.935 56.1406 129.31 56.1406H126.697V49.7295H129.31ZM129.168 54.8223C129.728 54.8223 130.172 54.6514 130.501 54.3096C130.833 53.9645 130.999 53.5153 130.999 52.9619C130.999 52.389 130.833 51.9284 130.501 51.5801C130.172 51.2285 129.728 51.0527 129.168 51.0527H128.157V54.8223H129.168ZM139.128 51.7998C139.561 51.7998 139.954 51.891 140.305 52.0732C140.66 52.2523 140.938 52.5046 141.14 52.8301C141.345 53.1556 141.448 53.5332 141.448 53.9629C141.448 54.3958 141.339 54.7865 141.121 55.1348C140.906 55.4798 140.603 55.75 140.212 55.9453C139.822 56.1406 139.377 56.2383 138.879 56.2383C138.378 56.2383 137.94 56.1406 137.566 55.9453C137.195 55.75 136.91 55.4831 136.711 55.1445C136.516 54.8027 136.418 54.4251 136.418 54.0117C136.418 53.6048 136.501 53.2288 136.667 52.8838C136.833 52.5355 137.063 52.1514 137.356 51.7314L138.767 49.7295H140.32L138.816 51.8193C138.949 51.8063 139.053 51.7998 139.128 51.7998ZM138.928 54.9785C139.228 54.9785 139.482 54.889 139.69 54.71C139.901 54.5309 140.007 54.2917 140.007 53.9922C140.007 53.6927 139.903 53.4551 139.695 53.2793C139.49 53.1003 139.241 53.0107 138.948 53.0107C138.642 53.0107 138.383 53.1003 138.171 53.2793C137.963 53.4551 137.859 53.6927 137.859 53.9922C137.859 54.2982 137.961 54.5391 138.166 54.7148C138.375 54.8906 138.629 54.9785 138.928 54.9785ZM147.561 53.6895V54.8711H146.74V56.1406H145.358V54.8711H142.448V53.8115L145.017 49.7295H146.74V53.6895H147.561ZM145.358 53.6895V51.4727L143.967 53.6895H145.358Z" fill="white"/>
<g clip-path="url(#clip2_1555_3813)">
<rect width="91.3381" height="5" transform="translate(10.457 67.6406)" fill="#FF005B" fill-opacity="0.24"/>
<rect x="10.457" y="67.6406" width="29.8667" height="4.77698" fill="#FF005B"/>
</g>
<path d="M119.789 69.0527H117.88V74.1406H116.42V69.0527H114.491V67.7295H119.789V69.0527ZM122.22 67.7295H123.631L126.009 74.1406H124.462L123.988 72.8223H121.83L121.351 74.1406H119.828L122.22 67.7295ZM123.568 71.6016L123.319 70.9082C123.26 70.7292 123.174 70.4606 123.06 70.1025L122.928 69.7021C122.909 69.79 122.857 69.9528 122.772 70.1904C122.691 70.4248 122.603 70.6641 122.508 70.9082L122.25 71.6016H123.568ZM129.857 74.2725C129.202 74.2725 128.618 74.1341 128.104 73.8574C127.593 73.5807 127.194 73.1885 126.907 72.6807C126.621 72.1729 126.478 71.5869 126.478 70.9229C126.478 70.2686 126.619 69.6891 126.903 69.1846C127.186 68.6768 127.581 68.2845 128.089 68.0078C128.6 67.7311 129.189 67.5928 129.857 67.5928C130.41 67.5928 130.918 67.6904 131.38 67.8857C131.842 68.0811 132.222 68.361 132.518 68.7256C132.817 69.0902 133 69.515 133.065 70H131.444C131.369 69.6875 131.185 69.4352 130.892 69.2432C130.602 69.0479 130.251 68.9502 129.837 68.9502C129.277 68.9502 128.833 69.1309 128.504 69.4922C128.179 69.8503 128.016 70.3337 128.016 70.9424C128.016 71.5544 128.182 72.0378 128.514 72.3926C128.849 72.7441 129.29 72.9199 129.837 72.9199C130.237 72.9199 130.584 72.8223 130.877 72.627C131.17 72.4284 131.359 72.1696 131.444 71.8506H133.065C133.006 72.3226 132.834 72.7425 132.547 73.1104C132.261 73.4782 131.883 73.7646 131.414 73.9697C130.949 74.1715 130.43 74.2725 129.857 74.2725ZM141.916 71.6895V72.8711H141.096V74.1406H139.714V72.8711H136.804V71.8115L139.372 67.7295H141.096V71.6895H141.916ZM139.714 71.6895V69.4727L138.323 71.6895H139.714ZM145.28 72.8711H147.39V74.1406H143.171V73.1299L145.461 70.7422C145.627 70.5632 145.757 70.3939 145.852 70.2344C145.946 70.0716 145.993 69.8877 145.993 69.6826C145.993 69.4352 145.918 69.2415 145.769 69.1016C145.622 68.9616 145.424 68.8916 145.173 68.8916C144.893 68.8916 144.675 68.9762 144.519 69.1455C144.366 69.3148 144.299 69.5361 144.318 69.8096H142.932C142.906 69.3766 142.99 68.9925 143.186 68.6572C143.381 68.3187 143.659 68.0583 144.021 67.876C144.382 67.6937 144.792 67.6025 145.251 67.6025C145.677 67.6025 146.055 67.6839 146.384 67.8467C146.716 68.0094 146.971 68.2389 147.15 68.5352C147.329 68.8314 147.419 69.1764 147.419 69.5703C147.419 69.9837 147.336 70.3369 147.17 70.6299C147.004 70.9229 146.791 71.2126 146.53 71.499L145.28 72.8711Z" fill="white"/>
<rect x="1.21296" y="0.895576" width="155.827" height="88.4186" rx="7.38372" stroke="url(#paint0_linear_1555_3813)" stroke-opacity="0.2" stroke-width="1.23256"/>
<defs>
<linearGradient id="paint0_linear_1555_3813" x1="161.607" y1="207.598" x2="-121.144" y2="1.11466" gradientUnits="userSpaceOnUse">
<stop stop-color="white"/>
<stop offset="1" stop-color="white" stop-opacity="0"/>
</linearGradient>
<clipPath id="clip0_1555_3813">
<rect width="91.3381" height="5" fill="white" transform="translate(10.457 31.6406)"/>
</clipPath>
<clipPath id="clip1_1555_3813">
<rect width="91.3381" height="5" fill="white" transform="translate(10.457 49.6406)"/>
</clipPath>
<clipPath id="clip2_1555_3813">
<rect width="91.3381" height="5" fill="white" transform="translate(10.457 67.6406)"/>
</clipPath>
</defs>
</svg>
